<svg width="20" height="24" viewBox="0 0 20 24" fill="none" xmlns="http://www.w3.org/2000/svg">
<path d="M16.25 5.5L15.7336 15.5251C15.6016 18.0864 15.5357 19.3671 15.0007 20.2879C14.7361 20.7431 14.3956 21.1273 14.0006 21.416C13.2017 22 12.1325 22 9.99392 22C7.8526 22 6.78192 22 5.98254 21.4149C5.58733 21.1257 5.24667 20.7408 4.98223 20.2848C4.4474 19.3626 4.38287 18.0801 4.25384 15.5152L3.75 5.5" stroke="#913752" stroke-width="1.5" stroke-linecap="round"/>
<path d="M2.5 5.5H17.5M13.3797 5.5L12.8109 4.09173C12.433 3.15626 12.244 2.68852 11.9181 2.39681C11.8458 2.3321 11.7693 2.27454 11.6892 2.2247C11.3283 2 10.8951 2 10.0287 2C9.14067 2 8.69667 2 8.32973 2.23412C8.24842 2.28601 8.17082 2.3459 8.09774 2.41317C7.76803 2.7167 7.58386 3.20155 7.21551 4.17126L6.71077 5.5" stroke="#913752" stroke-width="1.5" stroke-linecap="round"/>
<path d="M7.91699 16.5V10.5" stroke="#913752" stroke-width="1.5" stroke-linecap="round"/>
<path d="M12.083 16.5V10.5" stroke="#913752" stroke-width="1.5" stroke-linecap="round"/>
</svg>
