<svg width="24" height="24" viewBox="0 0 24 24" fill="none" xmlns="http://www.w3.org/2000/svg">
<path d="M2.5 3.00195H21.5" stroke="#913752" stroke-width="1.5" stroke-linecap="round" stroke-linejoin="round"/>
<path d="M4.5 3.00195V14.001C4.5 16.3298 4.93059 17.0903 6.92752 18.2885L9.94202 20.0972C10.9447 20.6987 11.446 20.9996 12 20.9996C12.554 20.9996 13.0553 20.6987 14.058 20.0972L17.0725 18.2885C19.0694 17.0903 19.5 16.3298 19.5 14.001V3.00195" stroke="#913752" stroke-width="1.5" stroke-linecap="round" stroke-linejoin="round"/>
<path d="M12.6047 8.00546L13.2206 9.24751C13.3046 9.4204 13.5286 9.58625 13.7175 9.618L14.8339 9.80501C15.5478 9.92498 15.7158 10.4472 15.2014 10.9624L14.3335 11.8374C14.1865 11.9856 14.106 12.2715 14.1515 12.4761L14.4 13.5594C14.5959 14.4168 14.1445 14.7485 13.3921 14.3004L12.3457 13.6758C12.1567 13.5629 11.8452 13.5629 11.6528 13.6758L10.6064 14.3004C9.85747 14.7485 9.40252 14.4133 9.5985 13.5594L9.84697 12.4761C9.89247 12.2715 9.81198 11.9856 9.66499 11.8374L8.79709 10.9624C8.28615 10.4472 8.45063 9.92498 9.16455 9.80501L10.2809 9.618C10.4664 9.58625 10.6904 9.4204 10.7744 9.24751L11.3903 8.00546C11.7263 7.33151 12.2722 7.33151 12.6047 8.00546Z" stroke="#913752" stroke-width="1.5" stroke-linecap="round" stroke-linejoin="round"/>
</svg>
