<svg width="24" height="20" viewBox="0 0 24 20" fill="none" xmlns="http://www.w3.org/2000/svg">
<g clip-path="url(#clip0_135_13880)">
<path d="M4.3651 19.9006V18.5769C4.3651 18.0694 4.07696 17.7385 3.58308 17.7385C3.33619 17.7385 3.06868 17.8267 2.88346 18.1136C2.73949 17.8709 2.53374 17.7385 2.22508 17.7385C2.01924 17.7385 1.81359 17.8046 1.64891 18.0474V17.7826H1.2168V19.9006H1.64891V18.7313C1.64891 18.3563 1.83412 18.1797 2.12226 18.1797C2.4102 18.1797 2.55437 18.3783 2.55437 18.7313V19.9006H2.98647V18.7313C2.98647 18.3563 3.19212 18.1797 3.45964 18.1797C3.74777 18.1797 3.89175 18.3783 3.89175 18.7313V19.9006H4.3651ZM10.7643 17.7826H10.0648V17.1428H9.6327V17.7826H9.24174V18.2017H9.63261V19.1726C9.63261 19.658 9.81782 19.9447 10.3117 19.9447C10.4969 19.9447 10.7026 19.8786 10.8467 19.7904L10.7232 19.3932C10.5997 19.4814 10.4558 19.5035 10.3529 19.5035C10.1471 19.5035 10.0648 19.3712 10.0648 19.1505V18.2017H10.7643V17.7826ZM14.427 17.7384C14.1802 17.7384 14.0156 17.8709 13.9126 18.0474V17.7826H13.4805V19.9006H13.9126V18.7093C13.9126 18.3563 14.0566 18.1577 14.3241 18.1577C14.4064 18.1577 14.5093 18.1798 14.5916 18.2018L14.7151 17.7606C14.6328 17.7385 14.5093 17.7385 14.427 17.7385M8.89193 17.9592C8.68609 17.8047 8.39805 17.7386 8.08939 17.7386C7.5956 17.7386 7.26641 18.0033 7.26641 18.4225C7.26641 18.7756 7.51331 18.9741 7.94542 19.0403L8.15116 19.0624C8.37752 19.1064 8.50097 19.1727 8.50097 19.283C8.50097 19.4374 8.33638 19.5478 8.04824 19.5478C7.7602 19.5478 7.53383 19.4374 7.38977 19.3272L7.18402 19.6801C7.41039 19.8566 7.71905 19.9448 8.02762 19.9448C8.6038 19.9448 8.93308 19.6581 8.93308 19.2609C8.93308 18.8858 8.66556 18.6873 8.25398 18.6211L8.04824 18.599C7.86302 18.5769 7.71905 18.5329 7.71905 18.4005C7.71905 18.246 7.86302 18.1578 8.08939 18.1578C8.33637 18.1578 8.58327 18.2681 8.70671 18.3343L8.89193 17.9592ZM20.3737 17.7386C20.1268 17.7386 19.9622 17.871 19.8592 18.0475V17.7827H19.4271V19.9007H19.8592V18.7094C19.8592 18.3564 20.0033 18.1578 20.2707 18.1578C20.3531 18.1578 20.456 18.1799 20.5383 18.2019L20.6618 17.7607C20.5795 17.7386 20.456 17.7386 20.3737 17.7386ZM14.8592 18.8417C14.8592 19.4815 15.2706 19.9448 15.9086 19.9448C16.1966 19.9448 16.4024 19.8787 16.6081 19.7022L16.4024 19.3272C16.2378 19.4595 16.0732 19.5256 15.888 19.5256C15.5382 19.5256 15.2913 19.2609 15.2913 18.8417C15.2913 18.4446 15.5382 18.1798 15.888 18.1578C16.0732 18.1578 16.2378 18.2239 16.4024 18.3564L16.6081 17.9813C16.4024 17.8047 16.1966 17.7386 15.9086 17.7386C15.2706 17.7386 14.8592 18.2019 14.8592 18.8417ZM18.8511 18.8417V17.7827H18.4189V18.0475C18.2749 17.849 18.0691 17.7386 17.8016 17.7386C17.2461 17.7386 16.814 18.2019 16.814 18.8417C16.814 19.4815 17.2461 19.9448 17.8016 19.9448C18.0897 19.9448 18.2955 19.8346 18.4189 19.636V19.9007H18.8511V18.8417ZM17.2666 18.8417C17.2666 18.4666 17.493 18.1578 17.8633 18.1578C18.2131 18.1578 18.4601 18.4446 18.4601 18.8417C18.4601 19.2168 18.2131 19.5256 17.8633 19.5256C17.493 19.5035 17.2666 19.2168 17.2666 18.8417ZM12.1019 17.7386C11.5257 17.7386 11.1142 18.1798 11.1142 18.8417C11.1142 19.5036 11.5256 19.9448 12.1224 19.9448C12.4105 19.9448 12.6986 19.8566 12.925 19.6581L12.7191 19.3272C12.5545 19.4595 12.3488 19.5478 12.1431 19.5478C11.8755 19.5478 11.608 19.4154 11.5463 19.0402H13.0073V18.8638C13.0279 18.1798 12.6576 17.7386 12.1019 17.7386ZM12.1018 18.1357C12.3692 18.1357 12.5545 18.3123 12.5956 18.6432H11.5668C11.6079 18.3564 11.7932 18.1357 12.1018 18.1357ZM22.8222 18.8417V16.9443H22.3901V18.0475C22.2461 17.849 22.0403 17.7386 21.7728 17.7386C21.2172 17.7386 20.7851 18.2019 20.7851 18.8417C20.7851 19.4815 21.2172 19.9448 21.7728 19.9448C22.0609 19.9448 22.2667 19.8346 22.3901 19.636V19.9007H22.8222V18.8417ZM21.2379 18.8417C21.2379 18.4666 21.4641 18.1578 21.8346 18.1578C22.1844 18.1578 22.4313 18.4446 22.4313 18.8417C22.4313 19.2168 22.1844 19.5256 21.8346 19.5256C21.4641 19.5035 21.2379 19.2168 21.2379 18.8417ZM6.79297 18.8417V17.7827H6.36086V18.0475C6.21679 17.849 6.01105 17.7386 5.74353 17.7386C5.18798 17.7386 4.75587 18.2019 4.75587 18.8417C4.75587 19.4815 5.18798 19.9448 5.74353 19.9448C6.03167 19.9448 6.23741 19.8346 6.36086 19.636V19.9007H6.79297V18.8417ZM5.18798 18.8417C5.18798 18.4666 5.41434 18.1578 5.78468 18.1578C6.13449 18.1578 6.38148 18.4446 6.38148 18.8417C6.38148 19.2168 6.13449 19.5256 5.78468 19.5256C5.41434 19.5035 5.18798 19.2168 5.18798 18.8417Z" fill="black"/>
<path d="M8.74805 1.69873H15.2297V14.1863H8.74805V1.69873Z" fill="#FF5F00"/>
<path d="M9.15863 7.94261C9.15863 5.40543 10.2697 3.15497 11.9776 1.69879C10.7225 0.639799 9.1381 0 7.40967 0C3.31476 0 0.00195312 3.55206 0.00195312 7.94261C0.00195312 12.3331 3.31476 15.8852 7.40957 15.8852C9.13801 15.8852 10.7224 15.2454 11.9776 14.1863C10.2697 12.7523 9.15863 10.4798 9.15863 7.94261Z" fill="#EB001B"/>
<path d="M23.9736 7.94261C23.9736 12.3331 20.6608 15.8852 16.566 15.8852C14.8376 15.8852 13.2532 15.2454 11.998 14.1863C13.7265 12.7303 14.8171 10.4798 14.8171 7.94261C14.8171 5.40543 13.7059 3.15497 11.998 1.69879C13.2531 0.639799 14.8376 0 16.566 0C20.6608 0 23.9736 3.57417 23.9736 7.94261Z" fill="#F79E1B"/>
</g>
<defs>
<clipPath id="clip0_135_13880">
<rect width="24" height="20" fill="white"/>
</clipPath>
</defs>
</svg>
