<svg width="24" height="20" viewBox="0 0 24 20" fill="none" xmlns="http://www.w3.org/2000/svg">
<g clip-path="url(#clip0_135_13885)">
<path d="M12.4122 6.36811C12.3985 9.14305 13.3744 10.6915 14.1095 11.6122C14.8647 12.5568 15.1184 13.1626 15.1154 14.0074C15.1098 15.3002 14.513 15.8708 13.9545 15.8929C12.9802 15.9317 12.4136 15.2168 11.9633 14.6761L11.6122 18.8975C12.0641 19.4327 12.9008 19.8994 13.7685 19.9199C15.8052 19.9199 17.1377 17.3358 17.1449 13.3293C17.1529 8.2445 14.4085 7.96305 14.4273 5.69028C14.4338 5.00113 14.6896 4.26571 15.2502 4.07872C15.5277 3.98426 16.2937 3.91197 17.1623 4.93992L17.5031 0.855585C17.0361 0.418476 16.4358 -7.82013e-05 15.6884 -7.82013e-05C13.7714 -7.82013e-05 12.4231 2.6192 12.4122 6.36811ZM20.7786 0.351728C20.4067 0.351728 20.0933 0.909319 19.9534 1.76498L17.044 19.6199H19.0793L19.4842 16.7431H21.9713L22.2062 19.6199H24L22.4347 0.351728H20.7786ZM21.0633 5.55679L21.6506 12.7922H20.0421L21.0633 5.55679ZM9.94462 0.351969L8.34037 19.6197H10.2798L11.8833 0.351488L9.94462 0.351969ZM7.07559 0.351969L5.05697 13.4664L4.24041 2.31534C4.14459 1.07052 3.76622 0.351728 3.34603 0.351728H0.0462187L0 0.911247C0.677437 1.28908 1.44712 1.89848 1.91344 2.55052C2.19881 2.94884 2.28019 3.29703 2.37394 4.24354L3.92053 19.6199H5.97L9.11213 0.351728L7.07559 0.351969Z" fill="url(#paint0_linear_135_13885)"/>
</g>
<defs>
<linearGradient id="paint0_linear_135_13885" x1="1103.38" y1="59.8794" x2="1250.92" y2="-1976.87" gradientUnits="userSpaceOnUse">
<stop stop-color="#222357"/>
<stop offset="1" stop-color="#254AA5"/>
</linearGradient>
<clipPath id="clip0_135_13885">
<rect width="24" height="20" fill="white"/>
</clipPath>
</defs>
</svg>
